<svg width="573" height="162" viewBox="0 0 573 162" fill="none" xmlns="http://www.w3.org/2000/svg">
<path d="M16.3945 126.775L26.8123 126.775" stroke="white" stroke-width="3"/>
<path d="M120.571 131.028L132.477 131.028" stroke="white" stroke-width="3"/>
<path d="M291.721 134.674L299.162 134.674" stroke="white" stroke-width="3"/>
<line y1="-1.5" x2="113.025" y2="-1.5" transform="matrix(0.0130981 -0.999914 0.999961 0.00882613 3 114.015)" stroke="white" stroke-width="3"/>
<line x1="3" y1="3.14563" x2="395.898" y2="3.14563" stroke="white" stroke-width="3"/>
<line x1="397.398" y1="1" x2="397.398" y2="104.294" stroke="white" stroke-width="3"/>
<line x1="395.898" y1="105.794" x2="281.303" y2="105.794" stroke="white" stroke-width="3"/>
<line x1="282.804" y1="104.294" x2="282.804" y2="114.015" stroke="white" stroke-width="3"/>
<line x1="3" y1="112.515" x2="281.303" y2="112.515" stroke="white" stroke-width="3"/>
<line x1="17.8945" y1="112.8" x2="17.8945" y2="127.383" stroke="white" stroke-width="3"/>
<line x1="17.8945" y1="112.8" x2="17.8945" y2="127.383" stroke="white" stroke-width="3"/>
<line x1="129.514" y1="114.015" x2="129.514" y2="131.028" stroke="white" stroke-width="3"/>
<line x1="226.249" y1="110.37" x2="226.249" y2="128.598" stroke="white" stroke-width="3"/>
<line x1="224.749" y1="127.098" x2="239.632" y2="127.098" stroke="white" stroke-width="3"/>
<line x1="238.132" y1="128.598" x2="238.132" y2="120.091" stroke="white" stroke-width="3"/>
<line x1="239.632" y1="122.237" x2="282.791" y2="122.237" stroke="white" stroke-width="3"/>
<line x1="279.826" y1="112.8" x2="279.826" y2="123.737" stroke="white" stroke-width="3"/>
<line x1="389.957" y1="106.724" x2="389.957" y2="114.015" stroke="white" stroke-width="3"/>
<line x1="291.721" y1="112.515" x2="431.616" y2="112.515" stroke="white" stroke-width="3"/>
<line x1="293.221" y1="114.015" x2="293.221" y2="131.028" stroke="white" stroke-width="3"/>
<line x1="296.185" y1="132.528" x2="291.72" y2="132.528" stroke="white" stroke-width="3"/>
<line x1="409.281" y1="112.8" x2="409.281" y2="92.1413" stroke="white" stroke-width="3"/>
<line y1="-1.5" x2="15.3709" y2="-1.5" transform="matrix(0.77458 -0.632476 0.77458 0.632476 409.293 94.5718)" stroke="white" stroke-width="3"/>
<line x1="419.698" y1="84.85" x2="419.698" y2="31.3804" stroke="white" stroke-width="3"/>
<line x1="433.116" y1="24.0891" x2="433.116" y2="114.015" stroke="white" stroke-width="3"/>
<path d="M433.069 25.4731L417.478 33.2032" stroke="white" stroke-width="3"/>
<line x1="394.41" y1="136.82" x2="501.564" y2="136.82" stroke="white" stroke-width="3"/>
<line x1="431.616" y1="38.387" x2="486.681" y2="38.387" stroke="white" stroke-width="3"/>
<line y1="-1.5" x2="38.2549" y2="-1.5" transform="matrix(0.389035 0.921223 -0.962572 0.271027 486.682 39.887)" stroke="white" stroke-width="3"/>
<line x1="501.564" y1="73.6283" x2="559.606" y2="73.6283" stroke="white" stroke-width="3"/>
<line x1="559.605" y1="73.6283" x2="564.07" y2="73.6283" stroke="white" stroke-width="3"/>
<line x1="564.083" y1="71.4827" x2="564.083" y2="117.661" stroke="white" stroke-width="3"/>
<line x1="562.583" y1="117.376" x2="573.001" y2="117.376" stroke="white" stroke-width="3"/>
<line x1="570.035" y1="117.661" x2="570.035" y2="138.32" stroke="white" stroke-width="3"/>
<line x1="573" y1="139.82" x2="547.7" y2="139.82" stroke="white" stroke-width="3"/>
<line x1="453.951" y1="49.6087" x2="453.951" y2="75.1283" stroke="white" stroke-width="3"/>
<line x1="452.451" y1="48.1087" x2="477.751" y2="48.1087" stroke="white" stroke-width="3"/>
<line y1="-1.5" x2="26.5823" y2="-1.5" transform="matrix(0.279932 0.96002 -0.981621 0.190841 477.752 49.6087)" stroke="white" stroke-width="3"/>
<line x1="485.192" y1="76.6283" x2="452.451" y2="76.6283" stroke="white" stroke-width="3"/>
<line x1="461.394" y1="89.7109" x2="461.394" y2="94.5718" stroke="white" stroke-width="3"/>
<line x1="461.394" y1="89.7109" x2="461.394" y2="95.787" stroke="white" stroke-width="3"/>
<line x1="479.252" y1="45.9631" x2="479.252" y2="49.6087" stroke="white" stroke-width="3"/>
<line x1="488.182" y1="36.2413" x2="488.182" y2="39.8869" stroke="white" stroke-width="3"/>
<line x1="486.692" y1="73.9131" x2="486.692" y2="78.774" stroke="white" stroke-width="3"/>
<line x1="520.923" y1="89.7109" x2="520.923" y2="104.294" stroke="white" stroke-width="3"/>
<line x1="529.853" y1="89.7109" x2="529.853" y2="104.294" stroke="white" stroke-width="3"/>
<line x1="540.271" y1="89.7109" x2="540.271" y2="103.078" stroke="white" stroke-width="3"/>
<path d="M71.9511 133.459C71.9511 144.161 61.5736 153.117 48.395 153.117C35.2164 153.117 24.8389 144.161 24.8389 133.459C24.8389 122.756 35.2164 113.8 48.395 113.8C61.5736 113.8 71.9511 122.756 71.9511 133.459Z" stroke="white" stroke-width="2"/>
<path d="M121.063 133.459C121.063 144.161 110.686 153.117 97.5073 153.117C84.3287 153.117 73.9512 144.161 73.9512 133.459C73.9512 122.756 84.3287 113.8 97.5073 113.8C110.686 113.8 121.063 122.756 121.063 133.459Z" stroke="white" stroke-width="2"/>
<path d="M60.0444 133.459C60.0444 138.096 55.3607 142.18 49.1384 142.18C42.9162 142.18 38.2324 138.096 38.2324 133.459C38.2324 128.822 42.9162 124.737 49.1384 124.737C55.3607 124.737 60.0444 128.822 60.0444 133.459Z" fill="#D9D9D9" fill-opacity="0.04" stroke="white" stroke-width="2"/>
<path d="M107.667 133.459C107.667 138.096 102.984 142.18 96.7615 142.18C90.5392 142.18 85.8555 138.096 85.8555 133.459C85.8555 128.822 90.5392 124.737 96.7615 124.737C102.984 124.737 107.667 128.822 107.667 133.459Z" fill="#D9D9D9" fill-opacity="0.04" stroke="white" stroke-width="2"/>
<path d="M71.9511 133.459C71.9511 144.161 61.5736 153.117 48.395 153.117C35.2164 153.117 24.8389 144.161 24.8389 133.459C24.8389 122.756 35.2164 113.8 48.395 113.8C61.5736 113.8 71.9511 122.756 71.9511 133.459Z" stroke="white" stroke-width="2"/>
<path d="M121.063 133.459C121.063 144.161 110.686 153.117 97.5073 153.117C84.3287 153.117 73.9512 144.161 73.9512 133.459C73.9512 122.756 84.3287 113.8 97.5073 113.8C110.686 113.8 121.063 122.756 121.063 133.459Z" stroke="white" stroke-width="2"/>
<path d="M332.394 134.674C332.394 139.311 327.71 143.396 321.488 143.396C315.266 143.396 310.582 139.311 310.582 134.674C310.582 130.037 315.266 125.952 321.488 125.952C327.71 125.952 332.394 130.037 332.394 134.674Z" fill="#D9D9D9" fill-opacity="0.04" stroke="white" stroke-width="2"/>
<path d="M380.018 134.674C380.018 139.311 375.334 143.396 369.112 143.396C362.89 143.396 358.206 139.311 358.206 134.674C358.206 130.037 362.89 125.952 369.112 125.952C375.334 125.952 380.018 130.037 380.018 134.674Z" fill="#D9D9D9" fill-opacity="0.04" stroke="white" stroke-width="2"/>
<path d="M344.301 134.674C344.301 145.376 333.923 154.333 320.745 154.333C307.566 154.333 297.188 145.376 297.188 134.674C297.188 123.972 307.566 115.015 320.745 115.015C333.923 115.015 344.301 123.972 344.301 134.674Z" stroke="white" stroke-width="2"/>
<path d="M393.412 134.674C393.412 145.376 383.035 154.333 369.856 154.333C356.677 154.333 346.3 145.376 346.3 134.674C346.3 123.972 356.677 115.015 369.856 115.015C383.035 115.015 393.412 123.972 393.412 134.674Z" stroke="white" stroke-width="2"/>
<path d="M534.795 140.75C534.795 145.387 530.112 149.472 523.889 149.472C517.667 149.472 512.983 145.387 512.983 140.75C512.983 136.113 517.667 132.028 523.889 132.028C530.112 132.028 534.795 136.113 534.795 140.75Z" fill="#D9D9D9" fill-opacity="0.04" stroke="white" stroke-width="2"/>
<path d="M548.189 140.75C548.189 151.452 537.812 160.409 524.633 160.409C511.455 160.409 501.077 151.452 501.077 140.75C501.077 130.048 511.455 121.091 524.633 121.091C537.812 121.091 548.189 130.048 548.189 140.75Z" stroke="white" stroke-width="2"/>
</svg>
