<svg width="1322" height="269" viewBox="0 0 1322 269" fill="none" xmlns="http://www.w3.org/2000/svg">
<path d="M33.9873 210.6L58.0879 210.6" stroke="white" stroke-width="3"/>
<path d="M274.992 217.688L302.536 217.688" stroke="white" stroke-width="3"/>
<path d="M670.93 223.763L688.144 223.763" stroke="white" stroke-width="3"/>
<line y1="-1.5" x2="188.367" y2="-1.5" transform="matrix(0.0182778 -0.999833 0.99998 0.00632455 3 189.336)" stroke="white" stroke-width="3"/>
<line x1="3" y1="5.57538" x2="911.935" y2="5.57538" stroke="white" stroke-width="3"/>
<line x1="913.435" y1="1.00003" x2="913.435" y2="173.135" stroke="white" stroke-width="3"/>
<line x1="911.935" y1="174.635" x2="646.828" y2="174.635" stroke="white" stroke-width="3"/>
<line x1="648.329" y1="173.135" x2="648.329" y2="189.336" stroke="white" stroke-width="3"/>
<line x1="3" y1="187.836" x2="646.829" y2="187.836" stroke="white" stroke-width="3"/>
<line x1="35.4873" y1="187.311" x2="35.4873" y2="211.612" stroke="white" stroke-width="3"/>
<line x1="35.4873" y1="187.311" x2="35.4873" y2="211.612" stroke="white" stroke-width="3"/>
<line x1="293.706" y1="189.336" x2="293.706" y2="217.688" stroke="white" stroke-width="3"/>
<line x1="517.497" y1="183.261" x2="517.497" y2="213.637" stroke="white" stroke-width="3"/>
<line x1="515.997" y1="212.137" x2="550.426" y2="212.137" stroke="white" stroke-width="3"/>
<line x1="548.927" y1="213.637" x2="548.927" y2="199.462" stroke="white" stroke-width="3"/>
<line x1="550.427" y1="204.037" x2="650.272" y2="204.037" stroke="white" stroke-width="3"/>
<line x1="641.443" y1="187.311" x2="641.443" y2="205.537" stroke="white" stroke-width="3"/>
<line x1="896.221" y1="177.185" x2="896.221" y2="189.336" stroke="white" stroke-width="3"/>
<line x1="670.93" y1="187.836" x2="994.566" y2="187.836" stroke="white" stroke-width="3"/>
<line x1="672.43" y1="189.336" x2="672.43" y2="217.688" stroke="white" stroke-width="3"/>
<line x1="681.258" y1="219.188" x2="670.929" y2="219.188" stroke="white" stroke-width="3"/>
<line x1="944.864" y1="187.311" x2="944.864" y2="152.884" stroke="white" stroke-width="3"/>
<line y1="-1.5" x2="31.9549" y2="-1.5" transform="matrix(0.861949 -0.506994 0.861949 0.506994 942.921 156.934)" stroke="white" stroke-width="3"/>
<line x1="968.965" y1="140.733" x2="968.965" y2="51.6279" stroke="white" stroke-width="3"/>
<line x1="996.064" y1="39.4773" x2="996.064" y2="189.336" stroke="white" stroke-width="3"/>
<path d="M997.926 41.7838L961.857 54.6657" stroke="white" stroke-width="3"/>
<line x1="908.492" y1="228.338" x2="1156.38" y2="228.338" stroke="white" stroke-width="3"/>
<line x1="994.564" y1="64.3038" x2="1121.95" y2="64.3038" stroke="white" stroke-width="3"/>
<line y1="-1.5" x2="68.0765" y2="-1.5" transform="matrix(0.505745 0.862683 -0.980044 0.198778 1121.95 65.8037)" stroke="white" stroke-width="3"/>
<line x1="1156.38" y1="123.032" x2="1290.66" y2="123.032" stroke="white" stroke-width="3"/>
<line x1="1290.66" y1="123.032" x2="1300.99" y2="123.032" stroke="white" stroke-width="3"/>
<line x1="1299.04" y1="118.457" x2="1299.04" y2="195.411" stroke="white" stroke-width="3"/>
<line x1="1297.54" y1="195.936" x2="1321.64" y2="195.936" stroke="white" stroke-width="3"/>
<line x1="1312.82" y1="195.411" x2="1312.82" y2="229.838" stroke="white" stroke-width="3"/>
<line x1="1321.64" y1="231.338" x2="1263.11" y2="231.338" stroke="white" stroke-width="3"/>
<line x1="1044.27" y1="82.0047" x2="1044.27" y2="124.532" stroke="white" stroke-width="3"/>
<line x1="1042.77" y1="80.5047" x2="1101.3" y2="80.5047" stroke="white" stroke-width="3"/>
<line y1="-1.5" x2="45.8795" y2="-1.5" transform="matrix(0.375215 0.926938 -0.990335 0.138693 1101.3 82.0047)" stroke="white" stroke-width="3"/>
<line x1="1118.51" y1="126.032" x2="1042.77" y2="126.032" stroke="white" stroke-width="3"/>
<line x1="1061.48" y1="148.834" x2="1061.48" y2="156.934" stroke="white" stroke-width="3"/>
<line x1="1061.48" y1="148.834" x2="1061.48" y2="158.959" stroke="white" stroke-width="3"/>
<line x1="1102.8" y1="75.9294" x2="1102.8" y2="82.0047" stroke="white" stroke-width="3"/>
<line x1="1123.45" y1="59.7284" x2="1123.45" y2="65.8038" stroke="white" stroke-width="3"/>
<line x1="1120.01" y1="122.507" x2="1120.01" y2="130.607" stroke="white" stroke-width="3"/>
<line x1="1199.2" y1="148.834" x2="1199.2" y2="173.135" stroke="white" stroke-width="3"/>
<line x1="1219.86" y1="148.834" x2="1219.86" y2="173.135" stroke="white" stroke-width="3"/>
<line x1="1243.96" y1="148.834" x2="1243.96" y2="171.11" stroke="white" stroke-width="3"/>
<path d="M163.818 221.738C163.818 230.76 157.779 239.095 147.661 245.226C137.561 251.347 123.545 255.165 108.01 255.165C92.4742 255.165 78.4578 251.347 68.3583 245.226C58.2403 239.095 52.2012 230.76 52.2012 221.738C52.2012 212.715 58.2403 204.381 68.3583 198.25C78.4578 192.129 92.4742 188.311 108.01 188.311C123.545 188.311 137.561 192.129 147.661 198.25C157.779 204.381 163.818 212.715 163.818 221.738Z" stroke="white" stroke-width="2"/>
<path d="M277.435 221.738C277.435 230.76 271.396 239.095 261.278 245.226C251.179 251.347 237.162 255.165 221.627 255.165C206.091 255.165 192.075 251.347 181.975 245.226C171.858 239.095 165.818 230.76 165.818 221.738C165.818 212.716 171.858 204.381 181.975 198.25C192.075 192.129 206.091 188.311 221.627 188.311C237.162 188.311 251.179 192.129 261.278 198.25C271.396 204.381 277.435 212.716 277.435 221.738Z" stroke="white" stroke-width="2"/>
<path d="M136.275 221.738C136.275 225.713 133.53 229.492 128.701 232.332C123.896 235.158 117.191 236.939 109.732 236.939C102.273 236.939 95.5683 235.158 90.7628 232.332C85.9341 229.492 83.1885 225.713 83.1885 221.738C83.1885 217.763 85.9341 213.984 90.7628 211.144C95.5683 208.318 102.273 206.537 109.732 206.537C117.191 206.537 123.896 208.318 128.701 211.144C133.53 213.984 136.275 217.763 136.275 221.738Z" fill="#D9D9D9" fill-opacity="0.04" stroke="white" stroke-width="2"/>
<path d="M246.448 221.738C246.448 225.713 243.703 229.492 238.874 232.332C234.068 235.158 227.364 236.939 219.905 236.939C212.446 236.939 205.741 235.158 200.936 232.332C196.107 229.492 193.361 225.713 193.361 221.738C193.361 217.763 196.107 213.984 200.936 211.144C205.741 208.318 212.446 206.537 219.905 206.537C227.364 206.537 234.068 208.318 238.874 211.144C243.703 213.984 246.448 217.763 246.448 221.738Z" fill="#D9D9D9" fill-opacity="0.04" stroke="white" stroke-width="2"/>
<path d="M163.818 221.738C163.818 230.76 157.779 239.095 147.661 245.226C137.561 251.347 123.545 255.165 108.01 255.165C92.4742 255.165 78.4578 251.347 68.3583 245.226C58.2403 239.095 52.2012 230.76 52.2012 221.738C52.2012 212.716 58.2403 204.381 68.3583 198.25C78.4578 192.129 92.4742 188.311 108.01 188.311C123.545 188.311 137.561 192.129 147.661 198.25C157.779 204.381 163.818 212.716 163.818 221.738Z" stroke="white" stroke-width="2"/>
<path d="M277.435 221.738C277.435 230.76 271.396 239.095 261.278 245.226C251.179 251.347 237.162 255.165 221.627 255.165C206.091 255.165 192.075 251.347 181.975 245.226C171.858 239.095 165.818 230.76 165.818 221.738C165.818 212.716 171.858 204.381 181.975 198.25C192.075 192.129 206.091 188.311 221.627 188.311C237.162 188.311 251.179 192.129 261.278 198.25C271.396 204.381 277.435 212.716 277.435 221.738Z" stroke="white" stroke-width="2"/>
<path d="M766.332 223.763C766.332 227.738 763.586 231.517 758.758 234.357C753.952 237.183 747.248 238.964 739.789 238.964C732.329 238.964 725.625 237.183 720.819 234.357C715.991 231.517 713.245 227.738 713.245 223.763C713.245 219.788 715.991 216.009 720.819 213.169C725.625 210.343 732.329 208.562 739.789 208.562C747.248 208.562 753.952 210.343 758.758 213.169C763.586 216.009 766.332 219.788 766.332 223.763Z" fill="#D9D9D9" fill-opacity="0.04" stroke="white" stroke-width="2"/>
<path d="M876.506 223.763C876.506 227.738 873.76 231.517 868.932 234.357C864.126 237.183 857.422 238.964 849.962 238.964C842.503 238.964 835.799 237.183 830.993 234.357C826.165 231.517 823.419 227.738 823.419 223.763C823.419 219.788 826.165 216.009 830.993 213.169C835.799 210.343 842.503 208.562 849.962 208.562C857.422 208.562 864.126 210.343 868.932 213.169C873.76 216.009 876.506 219.788 876.506 223.763Z" fill="#D9D9D9" fill-opacity="0.04" stroke="white" stroke-width="2"/>
<path d="M793.875 223.763C793.875 232.785 787.836 241.12 777.718 247.251C767.618 253.372 753.602 257.19 738.066 257.19C722.531 257.19 708.514 253.372 698.415 247.251C688.297 241.12 682.258 232.785 682.258 223.763C682.258 214.741 688.297 206.406 698.415 200.275C708.514 194.154 722.531 190.336 738.066 190.336C753.602 190.336 767.618 194.154 777.718 200.275C787.836 206.406 793.875 214.741 793.875 223.763Z" stroke="white" stroke-width="2"/>
<path d="M907.492 223.763C907.492 232.785 901.453 241.12 891.335 247.251C881.235 253.372 867.219 257.19 851.683 257.19C836.148 257.19 822.132 253.372 812.032 247.251C801.914 241.12 795.875 232.785 795.875 223.763C795.875 214.741 801.914 206.406 812.032 200.275C822.132 194.154 836.148 190.336 851.683 190.336C867.219 190.336 881.235 194.154 891.335 200.275C901.453 206.406 907.492 214.741 907.492 223.763Z" stroke="white" stroke-width="2"/>
<path d="M1234.57 233.889C1234.57 237.863 1231.82 241.642 1227 244.482C1222.19 247.309 1215.49 249.09 1208.03 249.09C1200.57 249.09 1193.86 247.309 1189.06 244.482C1184.23 241.642 1181.48 237.863 1181.48 233.889C1181.48 229.914 1184.23 226.135 1189.06 223.295C1193.86 220.468 1200.57 218.688 1208.03 218.688C1215.49 218.688 1222.19 220.468 1227 223.295C1231.82 226.135 1234.57 229.914 1234.57 233.889Z" fill="#D9D9D9" fill-opacity="0.04" stroke="white" stroke-width="2"/>
<path d="M1265.56 233.889C1265.56 242.911 1259.52 251.245 1249.4 257.377C1239.3 263.498 1225.28 267.316 1209.75 267.316C1194.21 267.316 1180.2 263.498 1170.1 257.377C1159.98 251.245 1153.94 242.911 1153.94 233.889C1153.94 224.866 1159.98 216.532 1170.1 210.4C1180.2 204.28 1194.21 200.462 1209.75 200.462C1225.28 200.462 1239.3 204.28 1249.4 210.4C1259.52 216.532 1265.56 224.866 1265.56 233.889Z" stroke="white" stroke-width="2"/>
</svg>
