<svg width="703" height="174" viewBox="0 0 703 174" fill="none" xmlns="http://www.w3.org/2000/svg">
<path d="M19.4268 136.132L32.2031 136.131" stroke="#A58E34" stroke-width="3"/>
<path d="M147.189 140.701L161.791 140.701" stroke="#A58E34" stroke-width="3"/>
<path d="M357.088 144.618L366.214 144.618" stroke="#A58E34" stroke-width="3"/>
<line y1="-1.5" x2="121.436" y2="-1.5" transform="matrix(0.0148382 -0.99989 0.99997 0.00779098 3 122.423)" stroke="#A58E34" stroke-width="3"/>
<line x1="3" y1="3.41736" x2="484.851" y2="3.41736" stroke="#A58E34" stroke-width="3"/>
<line x1="486.352" y1="1.00055" x2="486.352" y2="111.978" stroke="#A58E34" stroke-width="3"/>
<line x1="484.852" y1="113.478" x2="344.312" y2="113.478" stroke="#A58E34" stroke-width="3"/>
<line x1="345.812" y1="111.978" x2="345.812" y2="122.423" stroke="#A58E34" stroke-width="3"/>
<line x1="3" y1="120.923" x2="344.311" y2="120.923" stroke="#A58E34" stroke-width="3"/>
<line x1="20.9268" y1="121.117" x2="20.9268" y2="136.784" stroke="#A58E34" stroke-width="3"/>
<line x1="20.9268" y1="121.117" x2="20.9268" y2="136.784" stroke="#A58E34" stroke-width="3"/>
<line x1="157.816" y1="122.423" x2="157.816" y2="140.701" stroke="#A58E34" stroke-width="3"/>
<line x1="276.454" y1="118.506" x2="276.454" y2="138.09" stroke="#A58E34" stroke-width="3"/>
<line x1="274.954" y1="136.59" x2="293.206" y2="136.59" stroke="#A58E34" stroke-width="3"/>
<line x1="291.706" y1="138.09" x2="291.706" y2="128.951" stroke="#A58E34" stroke-width="3"/>
<line x1="293.206" y1="131.367" x2="346.137" y2="131.367" stroke="#A58E34" stroke-width="3"/>
<line x1="342.16" y1="121.117" x2="342.16" y2="132.867" stroke="#A58E34" stroke-width="3"/>
<line x1="477.226" y1="114.589" x2="477.226" y2="122.423" stroke="#A58E34" stroke-width="3"/>
<line x1="357.088" y1="120.923" x2="528.656" y2="120.923" stroke="#A58E34" stroke-width="3"/>
<line x1="358.588" y1="122.423" x2="358.588" y2="140.701" stroke="#A58E34" stroke-width="3"/>
<line x1="362.562" y1="142.201" x2="357.087" y2="142.201" stroke="#A58E34" stroke-width="3"/>
<line x1="501.604" y1="121.117" x2="501.604" y2="98.9215" stroke="#A58E34" stroke-width="3"/>
<line y1="-1.5" x2="17.9527" y2="-1.5" transform="matrix(0.813332 -0.5818 0.813332 0.5818 501.278 101.533)" stroke="#A58E34" stroke-width="3"/>
<line x1="514.379" y1="91.0878" x2="514.379" y2="33.6409" stroke="#A58E34" stroke-width="3"/>
<line x1="530.155" y1="25.8072" x2="530.155" y2="122.423" stroke="#A58E34" stroke-width="3"/>
<path d="M530.438 27.2942L511.317 35.5993" stroke="#A58E34" stroke-width="3"/>
<line x1="483.026" y1="147.035" x2="614.44" y2="147.035" stroke="#A58E34" stroke-width="3"/>
<line x1="528.655" y1="41.2802" x2="596.187" y2="41.2802" stroke="#A58E34" stroke-width="3"/>
<line y1="-1.5" x2="42.0324" y2="-1.5" transform="matrix(0.434235 0.9008 -0.9709 0.239487 596.188 42.7802)" stroke="#A58E34" stroke-width="3"/>
<line x1="614.439" y1="79.1429" x2="685.622" y2="79.1429" stroke="#A58E34" stroke-width="3"/>
<line x1="685.622" y1="79.1429" x2="691.098" y2="79.1429" stroke="#A58E34" stroke-width="3"/>
<line x1="690.773" y1="76.7261" x2="690.773" y2="126.339" stroke="#A58E34" stroke-width="3"/>
<line x1="689.273" y1="126.145" x2="702.05" y2="126.145" stroke="#A58E34" stroke-width="3"/>
<line x1="698.073" y1="126.339" x2="698.073" y2="148.535" stroke="#A58E34" stroke-width="3"/>
<line x1="702.049" y1="150.035" x2="671.021" y2="150.035" stroke="#A58E34" stroke-width="3"/>
<line x1="555.707" y1="53.2251" x2="555.707" y2="80.6429" stroke="#A58E34" stroke-width="3"/>
<line x1="554.207" y1="51.7251" x2="585.235" y2="51.7251" stroke="#A58E34" stroke-width="3"/>
<line y1="-1.5" x2="28.8968" y2="-1.5" transform="matrix(0.315813 0.948822 -0.985804 0.167899 585.236 53.2251)" stroke="#A58E34" stroke-width="3"/>
<line x1="594.362" y1="82.1429" x2="554.208" y2="82.1429" stroke="#A58E34" stroke-width="3"/>
<line x1="564.835" y1="96.3103" x2="564.835" y2="101.533" stroke="#A58E34" stroke-width="3"/>
<line x1="564.835" y1="96.3103" x2="564.835" y2="102.838" stroke="#A58E34" stroke-width="3"/>
<line x1="586.736" y1="49.3082" x2="586.736" y2="53.2251" stroke="#A58E34" stroke-width="3"/>
<line x1="597.688" y1="38.8633" x2="597.688" y2="42.7802" stroke="#A58E34" stroke-width="3"/>
<line x1="595.862" y1="79.3373" x2="595.862" y2="84.5598" stroke="#A58E34" stroke-width="3"/>
<line x1="637.842" y1="96.3103" x2="637.842" y2="111.978" stroke="#A58E34" stroke-width="3"/>
<line x1="648.793" y1="96.3103" x2="648.793" y2="111.978" stroke="#A58E34" stroke-width="3"/>
<line x1="661.57" y1="96.3103" x2="661.57" y2="110.672" stroke="#A58E34" stroke-width="3"/>
<path d="M87.7851 143.312C87.7851 149.049 84.6325 154.324 79.3711 158.202C74.1101 162.079 66.7942 164.508 58.6694 164.508C50.5446 164.508 43.2287 162.079 37.9677 158.202C32.7063 154.324 29.5537 149.049 29.5537 143.312C29.5537 137.576 32.7063 132.301 37.9677 128.423C43.2287 124.545 50.5446 122.117 58.6694 122.117C66.7942 122.117 74.1101 124.545 79.3711 128.423C84.6325 132.301 87.7851 137.576 87.7851 143.312Z" stroke="#A58E34" stroke-width="2"/>
<path d="M148.017 143.312C148.017 149.049 144.864 154.324 139.603 158.202C134.342 162.079 127.026 164.508 118.901 164.508C110.776 164.508 103.46 162.079 98.1991 158.202C92.9377 154.324 89.7852 149.049 89.7852 143.312C89.7852 137.576 92.9377 132.301 98.1991 128.423C103.46 124.545 110.776 122.117 118.901 122.117C127.026 122.117 134.342 124.545 139.603 128.423C144.864 132.301 148.017 137.576 148.017 143.312Z" stroke="#A58E34" stroke-width="2"/>
<path d="M73.1826 143.312C73.1826 145.791 71.7801 148.128 69.3241 149.885C66.8699 151.64 63.4284 152.757 59.581 152.757C55.7336 152.757 52.2921 151.64 49.838 149.885C47.382 148.128 45.9795 145.791 45.9795 143.312C45.9795 140.834 47.382 138.497 49.838 136.74C52.2921 134.985 55.7336 133.867 59.581 133.867C63.4284 133.867 66.8699 134.985 69.3241 136.74C71.7801 138.497 73.1826 140.834 73.1826 143.312Z" fill="#D9D9D9" fill-opacity="0.04" stroke="#A58E34" stroke-width="2"/>
<path d="M131.59 143.312C131.59 145.791 130.187 148.128 127.731 149.885C125.277 151.64 121.836 152.757 117.988 152.757C114.141 152.757 110.699 151.64 108.245 149.885C105.789 148.128 104.387 145.791 104.387 143.312C104.387 140.834 105.789 138.497 108.245 136.74C110.699 134.985 114.141 133.867 117.988 133.867C121.836 133.867 125.277 134.985 127.731 136.74C130.187 138.497 131.59 140.834 131.59 143.312Z" fill="#D9D9D9" fill-opacity="0.04" stroke="#A58E34" stroke-width="2"/>
<path d="M87.7851 143.312C87.7851 149.049 84.6325 154.324 79.3711 158.202C74.1101 162.079 66.7942 164.508 58.6694 164.508C50.5446 164.508 43.2287 162.079 37.9677 158.202C32.7063 154.324 29.5537 149.049 29.5537 143.312C29.5537 137.576 32.7063 132.301 37.9677 128.423C43.2287 124.545 50.5446 122.117 58.6694 122.117C66.7942 122.117 74.1101 124.545 79.3711 128.423C84.6325 132.301 87.7851 137.576 87.7851 143.312Z" stroke="#A58E34" stroke-width="2"/>
<path d="M148.017 143.312C148.017 149.049 144.864 154.324 139.603 158.202C134.342 162.079 127.026 164.508 118.901 164.508C110.776 164.508 103.46 162.079 98.1991 158.202C92.9377 154.324 89.7852 149.049 89.7852 143.312C89.7852 137.576 92.9377 132.301 98.1991 128.423C103.46 124.545 110.776 122.117 118.901 122.117C127.026 122.117 134.342 124.545 139.603 128.423C144.864 132.301 148.017 137.576 148.017 143.312Z" stroke="#A58E34" stroke-width="2"/>
<path d="M407.193 144.618C407.193 147.096 405.791 149.434 403.335 151.19C400.881 152.946 397.439 154.063 393.592 154.063C389.744 154.063 386.303 152.946 383.849 151.19C381.393 149.434 379.99 147.096 379.99 144.618C379.99 142.14 381.393 139.803 383.849 138.046C386.303 136.29 389.744 135.173 393.592 135.173C397.439 135.173 400.881 136.29 403.335 138.046C405.791 139.803 407.193 142.14 407.193 144.618Z" fill="#D9D9D9" fill-opacity="0.04" stroke="#A58E34" stroke-width="2"/>
<path d="M465.6 144.618C465.6 147.096 464.197 149.434 461.741 151.19C459.287 152.946 455.845 154.063 451.998 154.063C448.151 154.063 444.709 152.946 442.255 151.19C439.799 149.434 438.396 147.096 438.396 144.618C438.396 142.14 439.799 139.803 442.255 138.046C444.709 136.29 448.151 135.173 451.998 135.173C455.845 135.173 459.287 136.29 461.741 138.046C464.197 139.803 465.6 142.14 465.6 144.618Z" fill="#D9D9D9" fill-opacity="0.04" stroke="#A58E34" stroke-width="2"/>
<path d="M421.795 144.618C421.795 150.354 418.642 155.63 413.381 159.508C408.12 163.385 400.804 165.813 392.679 165.813C384.554 165.813 377.238 163.385 371.977 159.508C366.716 155.63 363.563 150.354 363.563 144.618C363.563 138.882 366.716 133.606 371.977 129.728C377.238 125.851 384.554 123.423 392.679 123.423C400.804 123.423 408.12 125.851 413.381 129.728C418.642 133.606 421.795 138.882 421.795 144.618Z" stroke="#A58E34" stroke-width="2"/>
<path d="M482.026 144.618C482.026 150.354 478.874 155.63 473.612 159.508C468.351 163.385 461.035 165.813 452.911 165.813C444.786 165.813 437.47 163.385 432.209 159.508C426.947 155.63 423.795 150.354 423.795 144.618C423.795 138.882 426.947 133.606 432.209 129.729C437.47 125.851 444.786 123.423 452.911 123.423C461.035 123.423 468.351 125.851 473.612 129.729C478.874 133.606 482.026 138.882 482.026 144.618Z" stroke="#A58E34" stroke-width="2"/>
<path d="M655.419 151.146C655.419 153.624 654.016 155.962 651.56 157.718C649.106 159.474 645.665 160.591 641.817 160.591C637.97 160.591 634.528 159.474 632.074 157.718C629.618 155.962 628.216 153.624 628.216 151.146C628.216 148.668 629.618 146.331 632.074 144.574C634.528 142.818 637.97 141.701 641.817 141.701C645.665 141.701 649.106 142.818 651.56 144.574C654.016 146.331 655.419 148.668 655.419 151.146Z" fill="#D9D9D9" fill-opacity="0.04" stroke="#A58E34" stroke-width="2"/>
<path d="M671.847 151.146C671.847 156.882 668.694 162.158 663.433 166.036C658.172 169.913 650.856 172.342 642.731 172.342C634.606 172.342 627.29 169.913 622.029 166.036C616.768 162.158 613.615 156.882 613.615 151.146C613.615 145.41 616.768 140.134 622.029 136.257C627.29 132.379 634.606 129.951 642.731 129.951C650.856 129.951 658.172 132.379 663.433 136.257C668.694 140.134 671.847 145.41 671.847 151.146Z" stroke="#A58E34" stroke-width="2"/>
</svg>
